<svg width="2151" height="297" viewBox="0 0 2151 297" fill="#c69b2f"  xmlns="http://www.w3.org/2000/svg">
<path d="M180.553 34.9449L233.111 189.425V243H0.809228V189.425H179.681L145.272 88.5194H80.8081V157.774H27.3787V88.5194H0.809228V34.9449H180.553ZM465.848 88.5194H423.889L435.068 140.787H465.848V192.765H446.248L456.992 243H402.255L391.512 192.765H329.952L319.353 243H264.617L275.216 192.765H255.76V140.787H286.105L296.994 88.5194H255.76V34.9449H465.848V88.5194ZM380.332 140.787L369.152 88.5194H351.73L340.841 140.787H380.332ZM700.908 34.7997L653.432 189.571H677.533V242.855H637.025L624.684 283.362H565.738L578.079 242.855H495.466V189.571H517.1C517.003 178.536 516.519 168.276 515.648 158.791C514.777 149.208 513.663 140.981 512.308 134.109C511.05 127.236 509.501 121.042 507.662 115.524C505.92 110.007 504.129 105.506 502.29 102.022C500.451 98.5374 498.515 95.6337 496.483 93.3106C494.547 90.9876 492.756 89.3422 491.111 88.3742C489.465 87.4063 487.917 86.9224 486.465 86.9224V33.0574C495.563 33.0574 504.178 35.0417 512.308 39.0101C520.536 42.9786 528.182 49.1733 535.248 57.5943C542.314 66.0152 548.412 76.3236 553.542 88.5194C558.769 100.618 562.882 115.331 565.883 132.657C568.98 149.886 570.626 168.857 570.819 189.571H594.485L641.962 34.7997H700.908ZM781.197 34.9449H933.5V155.161C933.5 167.066 931.177 178.44 926.531 189.28C921.885 200.121 915.642 209.461 907.802 217.302C899.962 225.142 890.621 231.385 879.78 236.031C868.94 240.677 857.567 243 845.661 243H814.736V189.425H845.661C855.05 189.425 863.084 186.086 869.762 179.407C876.538 172.632 879.926 164.55 879.926 155.161V88.5194H781.197V243H727.623V88.5194H701.199V34.9449H727.623V0.970753H781.197V34.9449ZM1135.6 177.665C1141.8 197.508 1150.12 213.382 1160.58 225.287C1171.13 237.096 1181.82 243 1192.66 243V296.429C1175.53 296.429 1159.37 291.396 1144.17 281.33C1128.97 271.263 1115.91 257.325 1104.97 239.515C1094.03 221.609 1085.8 200.992 1080.29 177.665H1042.25V243H988.672V177.665H963.409V34.9449H1180.03V177.665H1135.6ZM1016.98 88.3742V124.091H1126.6V88.3742H1016.98ZM1207.62 34.9449H1409.43V88.5194H1290.81C1298.65 104.297 1310.89 112.185 1327.54 112.185H1409.43V165.76H1269.32C1269.32 172.535 1273.82 178.198 1282.82 182.747C1291.92 187.199 1301.46 189.425 1311.43 189.425H1409.43V243H1306.05C1297.73 243 1289.02 241.838 1279.92 239.515C1270.92 237.192 1262.16 233.756 1253.64 229.207C1245.12 224.561 1237.43 219.189 1230.56 213.091C1223.68 206.993 1218.17 199.831 1214 191.603C1209.84 183.279 1207.76 174.665 1207.76 165.76H1207.62V112.185H1242.32C1237.48 104.829 1233.12 96.9404 1229.25 88.5194H1207.62V34.9449ZM1649.42 88.5194H1607.47L1618.64 140.787H1649.42V192.765H1629.82L1640.57 243H1585.83L1575.09 192.765H1513.53L1502.93 243H1448.19L1458.79 192.765H1439.34V140.787H1469.68L1480.57 88.5194H1439.34V34.9449H1649.42V88.5194ZM1563.91 140.787L1552.73 88.5194H1535.31L1524.42 140.787H1563.91ZM1888.99 34.9449H1897.55V243H1843.98V111.604C1834.78 116.734 1825.15 120.074 1815.08 121.622V243H1761.51V122.494C1751.35 121.913 1741.67 119.687 1732.47 115.815V243H1678.9V34.9449H1732.47V35.0901C1732.47 44.4789 1735.81 52.5127 1742.49 59.1913C1749.17 65.87 1757.25 69.2094 1766.74 69.2094H1801.15C1810.63 69.2094 1818.71 65.87 1825.39 59.1913C1832.07 52.4159 1835.41 44.3337 1835.41 34.9449H1888.99ZM2030.11 88.3742C2017.33 88.3742 2006.93 90.794 1998.89 95.6337C1990.86 100.376 1986.84 105.894 1986.84 112.185H2150.03V165.76C2150.03 174.665 2147.95 183.231 2143.79 191.458C2139.63 199.685 2134.11 206.848 2127.24 212.946C2120.37 219.044 2112.67 224.416 2104.16 229.062C2095.64 233.611 2086.83 237.096 2077.73 239.515C2068.73 241.838 2060.07 243 2051.74 243H1927.17V189.425H2046.37C2057.02 189.425 2066.7 187.296 2075.41 183.037C2084.12 178.681 2088.47 172.922 2088.47 165.76H1927.17V122.348C1927.17 111.217 1929.83 100.328 1935.16 89.6809C1940.58 79.0338 1947.74 69.6933 1956.64 61.6596C1965.65 53.6258 1976.39 47.1891 1988.88 42.3495C2001.46 37.4131 2014.48 34.9449 2027.93 34.9449H2150.03V88.3742H2030.11Z"/>
</svg>
