<svg width="32" height="32" viewBox="0 0 32 32" fill="none" xmlns="http://www.w3.org/2000/svg" style="transform: rotate(1440deg);"><path d="M19.4821 19.3408L23.8945 23.7556L21.8242 25.8271L17.4118 21.4123C17.0335 21.0338 16.5348 20.8273 15.9983 20.8273C15.4618 20.8273 14.9631 21.0338 14.5848 21.4123L10.1725 25.8271L8.10211 23.7556L12.5145 19.3408H19.4787H19.4821Z" fill="#15d278"></path><path d="M20.2181 18.0675L26.2434 19.6813L27 16.8494L20.9747 15.2356C20.4588 15.098 20.0289 14.7676 19.7607 14.3031C19.4924 13.842 19.4237 13.3018 19.5612 12.7856L21.1742 6.75702L18.3438 6L16.7308 12.0286L20.2147 18.0641L20.2181 18.0675Z" fill="#15d278"></path><path d="M11.7819 18.0675L5.7566 19.6813L5 16.8494L11.0253 15.2356C11.5412 15.098 11.9711 14.7676 12.2393 14.3031C12.5076 13.842 12.5764 13.3018 12.4388 12.7856L10.8259 6.75702L13.6562 6L15.2692 12.0286L11.7854 18.0641L11.7819 18.0675Z" fill="#15d278"></path></svg>